<svg width="56" height="80" viewBox="0 0 56 80" fill="none" xmlns="http://www.w3.org/2000/svg">
<path d="M48.85 27.4833C52.9233 24.8067 55.62 20.1933 55.62 14.9667C55.62 6.71333 48.9033 0 40.65 0H14.97C6.71667 0 0 6.71333 0 14.9667C0 20.1933 2.69667 24.8067 6.77 27.4833C2.69667 30.16 0 34.7733 0 40C0 45.2267 2.69667 49.84 6.77 52.5167C2.69667 55.19 0 59.8033 0 65.0333C0 73.2867 6.75 80 15.05 80C23.4367 80 30.2633 73.2133 30.2633 64.87V51.0667C32.9233 53.49 36.4567 54.9667 40.3267 54.9667H40.65C48.9033 54.9667 55.62 48.2533 55.62 40C55.62 34.7733 52.9233 30.16 48.85 27.4833ZM30.26 4.90333H40.65C46.2 4.90333 50.7167 9.41667 50.7167 14.9667C50.7167 20.5167 46.2 25.0333 40.65 25.0333H30.26V4.90333ZM4.90333 14.9667C4.90333 9.41667 9.42 4.90333 14.97 4.90333H25.36V25.0333H14.97C9.42 25.0333 4.90333 20.5167 4.90333 14.9667ZM4.90333 40C4.90333 34.45 9.42 29.9367 14.97 29.9367H25.36V50.0667H14.9067C9.38667 50.03 4.90333 45.5267 4.90333 40ZM25.36 64.87C25.36 70.51 20.7333 75.0967 15.05 75.0967C9.45667 75.0967 4.90333 70.5833 4.90333 65.0333C4.90333 59.4833 9.42 54.9667 14.97 54.9667H25.36V64.87ZM40.65 50.0667H40.3267C34.7767 50.0667 30.2633 45.55 30.2633 40C30.2633 34.45 34.7767 29.9367 40.3267 29.9367H40.65C46.2 29.9367 50.7167 34.45 50.7167 40C50.7167 45.55 46.2 50.0667 40.65 50.0667Z" fill="#4C3A51"/>
</svg>
