<svg width="80" height="80" viewBox="0 0 80 80" fill="none" xmlns="http://www.w3.org/2000/svg">
<path fill-rule="evenodd" clip-rule="evenodd" d="M39.9983 0C17.9093 0 0 18.3594 0 41.0112C0 59.1313 11.4595 74.5037 27.3522 79.9274C29.3521 80.3068 30.0854 79.0389 30.0854 77.9555C30.0854 76.9781 30.0487 73.7484 30.0321 70.3206C18.9059 72.8017 16.556 65.4812 16.556 65.4812C14.7361 60.741 12.1162 59.4799 12.1162 59.4799C8.48631 56.9338 12.3895 56.9885 12.3895 56.9885C16.406 57.279 18.5192 61.2161 18.5192 61.2161C22.0857 67.484 27.8755 65.6726 30.1587 64.6234C30.5187 61.9714 31.5554 60.1635 32.6986 59.1382C23.8157 58.1026 14.4761 54.5859 14.4761 38.8718C14.4761 34.3947 16.0393 30.7345 18.5992 27.8637C18.1826 26.8282 16.8126 22.6587 18.9859 17.0094C18.9859 17.0094 22.3457 15.9089 29.9888 21.213C33.1786 20.304 36.5985 19.8494 39.9983 19.8323C43.3982 19.8494 46.8214 20.304 50.0179 21.213C57.6509 15.9055 61.0075 17.0094 61.0075 17.0094C63.184 22.6587 61.8141 26.8282 61.4008 27.8637C63.964 30.7345 65.5173 34.3947 65.5173 38.8718C65.5173 54.6235 56.161 58.0924 47.2547 59.1074C48.688 60.3788 49.9679 62.877 49.9679 66.7013C49.9679 72.19 49.9213 76.6055 49.9213 77.9555C49.9213 79.0457 50.6412 80.3273 52.6678 79.924C68.5538 74.4935 80 59.1279 80 41.0146C79.9967 18.3628 62.0874 0 39.9983 0Z" fill="#4C3A51"/>
<path d="M15.1491 58.8851C15.0624 59.0901 14.7491 59.1516 14.4625 59.0115C14.1725 58.8782 14.0091 58.598 14.1025 58.3964C14.1891 58.1879 14.5025 58.1298 14.7924 58.2699C15.0824 58.3998 15.2491 58.68 15.1491 58.8851Z" fill="#4C3A51"/>
<path d="M16.7694 60.7375C16.5794 60.9186 16.2061 60.8332 15.9528 60.5495C15.6895 60.2624 15.6428 59.8797 15.8361 59.6985C16.0328 59.5174 16.3928 59.6028 16.6561 59.8899C16.9194 60.1736 16.9694 60.5529 16.7694 60.7375Z" fill="#4C3A51"/>
<path d="M18.346 63.0992C18.0994 63.2735 17.6994 63.1094 17.4527 62.7471C17.2061 62.3815 17.2061 61.944 17.4594 61.7697C17.706 61.5954 18.1027 61.7526 18.3527 62.1149C18.596 62.484 18.596 62.9214 18.346 63.0992Z" fill="#4C3A51"/>
<path d="M20.5058 65.3822C20.2859 65.6317 19.8192 65.5633 19.4792 65.225C19.1292 64.8935 19.0326 64.4252 19.2526 64.1758C19.4759 63.9263 19.9459 63.998 20.2892 64.333C20.6358 64.6645 20.7392 65.1361 20.5058 65.3822Z" fill="#4C3A51"/>
<path d="M23.4892 66.7048C23.3925 67.0261 22.9426 67.173 22.4892 67.0363C22.0359 66.8962 21.7393 66.5203 21.8326 66.1956C21.9259 65.8709 22.3792 65.7206 22.8359 65.8675C23.2859 66.0042 23.5825 66.3802 23.4892 66.7048Z" fill="#4C3A51"/>
<path d="M26.7625 66.9507C26.7725 67.289 26.3892 67.5692 25.9126 67.5761C25.4359 67.5863 25.0459 67.3129 25.0426 66.9814C25.0426 66.6397 25.4193 66.3628 25.8959 66.3526C26.3725 66.3423 26.7625 66.6157 26.7625 66.9507Z" fill="#4C3A51"/>
<path d="M29.8087 66.4209C29.8654 66.749 29.5354 67.0907 29.0621 67.1796C28.5987 67.2685 28.1688 67.0634 28.1088 66.7353C28.0521 66.397 28.3888 66.0586 28.8521 65.9698C29.322 65.8843 29.7487 66.0826 29.8087 66.4209Z" fill="#4C3A51"/>
</svg>
