<svg width="90" height="90" viewBox="0 0 90 90" fill="none" xmlns="http://www.w3.org/2000/svg">
<g clip-path="url(#clip0_93_46)">
<mask id="mask0_93_46" style="mask-type:luminance" maskUnits="userSpaceOnUse" x="0" y="0" width="90" height="90">
<path d="M90 0H0V90H90V0Z" fill="white"/>
</mask>
<g mask="url(#mask0_93_46)">
<path d="M26.2506 31.8752C26.1929 30.6287 26.3959 29.384 26.8465 28.2204C27.2973 27.0569 27.986 26.0001 28.8683 25.1178C29.7506 24.2355 30.8072 23.547 31.9707 23.0963C33.1343 22.6455 34.3791 22.4426 35.6256 22.5002C36.9839 22.4979 38.2971 22.9874 39.3226 23.8779C40.3483 24.7685 41.017 26.0001 41.2053 27.3453C41.3937 28.6905 41.0889 30.0584 40.3471 31.1964C39.6055 32.3343 38.4772 33.1656 37.1706 33.5364C36.7864 34.6403 36.0728 35.5994 35.1257 36.2841C34.1786 36.969 33.0441 37.3463 31.8756 37.3652H31.7481C30.2922 37.3622 28.8968 36.7832 27.8667 35.7543C26.8365 34.7256 26.2556 33.3311 26.2506 31.8752ZM52.7143 37.1702C53.0851 38.4768 53.9163 39.6053 55.0543 40.3469C56.1922 41.0885 57.5603 41.3933 58.9055 41.205C60.2507 41.0166 61.4822 40.3479 62.3729 39.3224C63.2634 38.2967 63.7527 36.9834 63.7506 35.6252C63.8082 34.3787 63.6053 33.134 63.1545 31.9704C62.7038 30.8069 62.0152 29.7501 61.1328 28.8678C60.2505 27.9855 59.1939 27.297 58.0304 26.8463C56.8668 26.3955 55.622 26.1926 54.3756 26.2502C52.9203 26.2562 51.5266 26.8376 50.4987 27.8676C49.4709 28.8977 48.8922 30.2925 48.8893 31.7477C48.8793 32.9381 49.2431 34.1016 49.9293 35.0744C50.6154 36.0473 51.5895 36.7802 52.7143 37.1702ZM84.2856 51.4202C84.2631 51.5664 79.2418 73.7064 79.2418 73.7064C78.2403 78.3134 75.6954 82.44 72.0285 85.4031C68.3615 88.3664 63.7924 89.9882 59.0781 90.0002H30.9231C26.1953 89.9835 21.6153 88.35 17.9439 85.3712C14.2726 82.3922 11.7308 78.2469 10.7405 73.6239L5.79429 52.0014C3.83094 50.3069 2.2888 48.1787 1.28985 45.7853C0.290887 43.3917 -0.137499 40.7987 0.03857 38.2112C0.214639 35.6237 0.990333 33.1125 2.3043 30.8765C3.61827 28.6404 5.43448 26.7407 7.60929 25.3277C8.02678 21.8145 9.5995 18.5396 12.0804 16.0173C14.5613 13.495 17.8098 11.8683 21.3156 11.3927C22.6147 9.61004 24.3159 8.1588 26.2811 7.15671C28.2461 6.15462 30.4197 5.62992 32.6256 5.62517H34.0319C37.701 2.00168 42.6563 -0.0208532 47.8131 0.000162147C51.5354 0.0119091 55.1784 1.07667 58.321 3.0714C61.4638 5.06613 63.978 7.90941 65.5731 11.2727C69.1266 11.439 72.5475 12.6731 75.3888 14.8139C78.23 16.9548 80.3597 19.9026 81.4994 23.2727C83.843 24.7002 85.8231 26.6526 87.2835 28.976C88.7439 31.2993 89.6446 33.9302 89.9148 36.6611C90.1849 39.3921 89.8171 42.1484 88.8402 44.7129C87.8634 47.2773 86.3041 49.5798 84.2856 51.4389V51.4202ZM11.2505 39.3752C11.2505 40.8671 11.8432 42.2978 12.8981 43.3527C13.953 44.4075 15.3837 45.0002 16.8756 45.0002H22.5006C26.6656 45.0125 30.6768 46.5768 33.7506 49.3877C36.8168 46.5644 40.8326 44.9973 45.0006 44.9973C49.1687 44.9973 53.1843 46.5644 56.2506 49.3877C59.3247 46.5774 63.3356 45.0132 67.5006 45.0002H72.1881C73.7141 45.0024 75.1929 44.472 76.3695 43.5003C77.5461 42.5286 78.3465 41.1768 78.6329 39.6779C78.9191 38.1791 78.6731 36.6273 77.9375 35.2904C77.2017 33.9536 76.0224 32.9154 74.6031 32.3552C73.6979 31.9955 72.9017 31.4069 72.2922 30.647C71.6829 29.8871 71.2814 28.982 71.1269 28.0202C70.8902 26.4825 70.1107 25.0805 68.9296 24.0678C67.7485 23.0552 66.2438 22.4991 64.6881 22.5002H61.5568C60.2601 22.5005 59.0031 22.0527 57.9985 21.2327C56.994 20.4126 56.3037 19.2707 56.0443 18.0002C55.7242 16.4084 54.9501 14.9433 53.8153 13.782C52.6806 12.6207 51.2338 11.8127 49.65 11.4558C48.066 11.0989 46.4127 11.2082 44.8895 11.7707C43.3663 12.3331 42.0387 13.3245 41.0668 14.6252C40.5429 15.3237 39.8634 15.8909 39.0823 16.2813C38.3013 16.6719 37.44 16.8752 36.5668 16.8752H32.6256C32.0484 16.8801 31.4866 17.0628 31.017 17.3982C30.5473 17.7338 30.1925 18.2058 30.0006 18.7502C29.6138 19.8443 28.8979 20.7921 27.9513 21.4634C27.0046 22.1348 25.8735 22.4969 24.7131 22.5002H23.4381C22.1955 22.5021 21.0043 22.9967 20.1256 23.8754C19.2469 24.7539 18.7525 25.9451 18.7506 27.1877V28.8227C18.7503 29.9858 18.3897 31.1202 17.7182 32.0699C17.0466 33.0194 16.0971 33.7374 15.0006 34.1252C13.9124 34.5099 12.9689 35.2199 12.298 36.1592C11.6272 37.0983 11.2615 38.2211 11.2505 39.3752ZM29.3144 78.6077C29.3144 78.6077 28.1256 62.0102 28.1256 61.8752C28.1256 60.3834 27.533 58.9526 26.478 57.8978C25.4231 56.8428 23.9923 56.2502 22.5006 56.2502H18.3081L21.7281 71.2127C22.1109 73.0613 23.0378 74.7533 24.3896 76.071C25.7415 77.3888 27.4565 78.2721 29.3144 78.6077ZM48.8144 78.7502L50.5993 61.7289C50.5011 60.3018 49.8628 58.9656 48.8145 57.9924C47.766 57.0191 46.3861 56.4819 44.9556 56.49C43.525 56.4981 42.1514 57.051 41.1141 58.0361C40.0767 59.0211 39.4538 60.3645 39.3719 61.7927L40.6056 78.7502H48.8144ZM71.6894 56.2502H67.5006C66.0087 56.2502 64.578 56.8428 63.5231 57.8978C62.4681 58.9526 61.8756 60.3834 61.8756 61.8752C61.8756 62.0702 60.1431 78.6902 60.1431 78.6902C62.0957 78.4587 63.927 77.6223 65.3808 76.2984C66.8346 74.9744 67.838 73.229 68.2506 71.3064L71.6894 56.2502Z" fill="#4C3A51"/>
</g>
</g>
<defs>
<clipPath id="clip0_93_46">
<rect width="90" height="90" fill="white"/>
</clipPath>
</defs>
</svg>
