<svg width="60" height="60" viewBox="0 0 60 60" fill="none" xmlns="http://www.w3.org/2000/svg">
<g clip-path="url(#clip0_57_7)">
<path d="M17.5004 21.2501C17.4619 20.4191 17.5973 19.5893 17.8977 18.8136C18.1982 18.0379 18.6573 17.3334 19.2455 16.7452C19.8337 16.157 20.5381 15.698 21.3138 15.3975C22.0895 15.097 22.9194 14.9617 23.7504 15.0001C24.6559 14.9986 25.5314 15.3249 26.2151 15.9186C26.8989 16.5123 27.3447 17.3334 27.4702 18.2302C27.5958 19.127 27.3926 20.0389 26.8981 20.7976C26.4037 21.5562 25.6515 22.1104 24.7804 22.3576C24.5243 23.0935 24.0485 23.7329 23.4171 24.1894C22.7857 24.646 22.0294 24.8975 21.2504 24.9101H21.1654C20.1948 24.9081 19.2645 24.5221 18.5778 23.8362C17.891 23.1504 17.5037 22.2207 17.5004 21.2501ZM35.1429 24.7801C35.3901 25.6512 35.9442 26.4035 36.7029 26.8979C37.4615 27.3923 38.3735 27.5955 39.2703 27.47C40.1671 27.3444 40.9881 26.8986 41.5819 26.2149C42.1756 25.5311 42.5018 24.6556 42.5004 23.7501C42.5388 22.9191 42.4035 22.0893 42.103 21.3136C41.8025 20.5379 41.3435 19.8334 40.7552 19.2452C40.167 18.657 39.4626 18.198 38.6869 17.8975C37.9112 17.597 37.0813 17.4617 36.2504 17.5001C35.2802 17.5041 34.3511 17.8917 33.6658 18.5784C32.9806 19.2651 32.5948 20.195 32.5929 21.1651C32.5862 21.9587 32.8287 22.7344 33.2862 23.3829C33.7436 24.0315 34.393 24.5201 35.1429 24.7801ZM56.1904 34.2801C56.1754 34.3776 52.8279 49.1376 52.8279 49.1376C52.1602 52.2089 50.4636 54.96 48.019 56.9354C45.5743 58.9109 42.5283 59.9921 39.3854 60.0001H20.6154C17.4635 59.989 14.4102 58.9 11.9626 56.9141C9.51507 54.9281 7.82051 52.1646 7.16036 49.0826L3.86286 34.6676C2.55396 33.5379 1.52587 32.1191 0.859899 30.5235C0.193925 28.9278 -0.0916659 27.1991 0.0257134 25.4741C0.143093 23.7491 0.660222 22.075 1.5362 20.5843C2.41218 19.0936 3.62299 17.8271 5.07286 16.8851C5.35119 14.543 6.39967 12.3597 8.05359 10.6782C9.70752 8.99664 11.8732 7.91217 14.2104 7.59511C15.0765 6.40669 16.2106 5.4392 17.5207 4.77114C18.8307 4.10308 20.2798 3.75328 21.7504 3.75011H22.6879C25.134 1.33445 28.4375 -0.0139021 31.8754 0.000108098C34.3569 0.00793937 36.7856 0.71778 38.8807 2.0476C40.9759 3.37742 42.652 5.27294 43.7154 7.51511C46.0844 7.62597 48.365 8.44874 50.2592 9.87594C52.1533 11.3032 53.5731 13.2684 54.3329 15.5151C55.8953 16.4668 57.2154 17.7684 58.189 19.3173C59.1626 20.8662 59.7631 22.6201 59.9432 24.4407C60.1233 26.2614 59.8781 28.0989 59.2268 29.8086C58.5756 31.5182 57.5361 33.0532 56.1904 34.2926V34.2801ZM7.50036 26.2501C7.50036 27.2447 7.89545 28.1985 8.59871 28.9018C9.30197 29.605 10.2558 30.0001 11.2504 30.0001H15.0004C17.7771 30.0083 20.4512 31.0512 22.5004 32.9251C24.5445 31.0429 27.2217 29.9982 30.0004 29.9982C32.7791 29.9982 35.4562 31.0429 37.5004 32.9251C39.5498 31.0516 42.2237 30.0088 45.0004 30.0001H48.1254C49.1427 30.0016 50.1286 29.648 50.913 29.0002C51.6974 28.3524 52.231 27.4512 52.4219 26.4519C52.6127 25.4527 52.4487 24.4182 51.9583 23.5269C51.4678 22.6357 50.6816 21.9436 49.7354 21.5701C49.1319 21.3303 48.6011 20.9379 48.1948 20.4313C47.7886 19.9247 47.5209 19.3213 47.4179 18.6801C47.2601 17.655 46.7405 16.7203 45.9531 16.0452C45.1657 15.3701 44.1625 14.9994 43.1254 15.0001H41.0379C40.1734 15.0003 39.3354 14.7018 38.6657 14.1551C37.996 13.6084 37.5358 12.8471 37.3629 12.0001C37.1495 10.9389 36.6334 9.96221 35.8769 9.18799C35.1204 8.41377 34.1559 7.87515 33.1 7.6372C32.044 7.39925 30.9418 7.47215 29.9263 7.8471C28.9109 8.22205 28.0258 8.883 27.3779 9.75011C27.0286 10.2158 26.5756 10.5939 26.0549 10.8542C25.5342 11.1146 24.96 11.2501 24.3779 11.2501H21.7504C21.3656 11.2534 20.9911 11.3752 20.678 11.5988C20.3649 11.8225 20.1283 12.1372 20.0004 12.5001C19.7425 13.2295 19.2653 13.8614 18.6342 14.3089C18.0031 14.7565 17.249 14.9979 16.4754 15.0001H15.6254C14.797 15.0014 14.0029 15.3311 13.4171 15.9169C12.8313 16.5026 12.5017 17.2967 12.5004 18.1251V19.2151C12.5002 19.9905 12.2598 20.7468 11.8121 21.3799C11.3644 22.0129 10.7314 22.4916 10.0004 22.7501C9.27491 23.0066 8.64591 23.4799 8.19869 24.1061C7.75146 24.7322 7.50766 25.4807 7.50036 26.2501ZM19.5429 52.4051C19.5429 52.4051 18.7504 41.3401 18.7504 41.2501C18.7504 40.2556 18.3553 39.3017 17.652 38.5985C16.9487 37.8952 15.9949 37.5001 15.0004 37.5001H12.2054L14.4854 47.4751C14.7406 48.7075 15.3585 49.8355 16.2597 50.714C17.161 51.5925 18.3043 52.1814 19.5429 52.4051ZM32.5429 52.5001L33.7329 41.1526C33.6674 40.2012 33.2419 39.3104 32.543 38.6616C31.844 38.0127 30.9241 37.6546 29.9704 37.66C29.0167 37.6654 28.1009 38.034 27.4094 38.6907C26.7178 39.3474 26.3025 40.243 26.2479 41.1951L27.0704 52.5001H32.5429ZM47.7929 37.5001H45.0004C44.0058 37.5001 43.052 37.8952 42.3487 38.5985C41.6454 39.3017 41.2504 40.2556 41.2504 41.2501C41.2504 41.3801 40.0954 52.4601 40.0954 52.4601C41.3971 52.3058 42.618 51.7482 43.5872 50.8656C44.5564 49.9829 45.2253 48.8193 45.5004 47.5376L47.7929 37.5001Z" fill="#4C3A51"/>
</g>
<defs>
<clipPath id="clip0_57_7">
<rect width="60" height="60" fill="white"/>
</clipPath>
</defs>
</svg>
