<svg width="80" height="65" viewBox="0 0 80 65" fill="none" xmlns="http://www.w3.org/2000/svg">
<path d="M71.81 16.1811C71.8567 16.8845 71.8567 17.5911 71.8567 18.3011C71.8567 39.9911 55.3433 65.0011 25.1567 65.0011V64.9878C16.24 65.0011 7.50667 62.4478 0 57.6311C1.29667 57.7878 2.6 57.8645 3.90667 57.8678C11.3 57.8745 18.48 55.3945 24.29 50.8278C17.2667 50.6945 11.1067 46.1145 8.95667 39.4278C11.4167 39.9011 13.95 39.8045 16.3667 39.1478C8.70666 37.6011 3.2 30.8711 3.2 23.0578C3.2 22.9878 3.2 22.9178 3.2 22.8511C5.48333 24.1245 8.03667 24.8278 10.65 24.9045C3.43667 20.0878 1.21 10.4945 5.56667 2.99447C13.9 13.2478 26.1967 19.4811 39.3933 20.1445C38.07 14.4445 39.88 8.47114 44.14 4.46114C50.75 -1.75553 61.1467 -1.43553 67.3633 5.17447C71.04 4.45114 74.5633 3.10114 77.7867 1.19114C76.56 4.99114 73.9967 8.2178 70.57 10.2711C73.8267 9.88113 77.0033 9.01113 80 7.68447C77.7967 10.9811 75.0233 13.8578 71.81 16.1811Z" fill="#4C3A51"/>
</svg>
